<?xml version="1.0" encoding="utf-8"?>
<!-- Generator: Adobe Illustrator 25.0.1, SVG Export Plug-In . SVG Version: 6.00 Build 0)  -->
<svg version="1.1" id="Layer_1" xmlns="http://www.w3.org/2000/svg" xmlns:xlink="http://www.w3.org/1999/xlink" x="0px" y="0px"
	 viewBox="0 0 217.7 29.9" style="enable-background:new 0 0 217.7 29.9;" xml:space="preserve">
<style type="text/css">
	.st0{fill:#010F0F;}
	.st1{fill:#15AABF;}
</style>
<g>
	<path class="st0" d="M55.7,15.9c0.5,0.7,0.8,1.6,0.8,2.9c0,1.7-0.5,3-1.4,3.8s-2.5,1.3-4.7,1.3H35V6.5h14.9c3.9,0,5.9,1.5,5.9,4.5
		c0,1.8-0.8,2.9-2.4,3.4v0.1C54.4,14.8,55.1,15.3,55.7,15.9z M49.4,13c0.3-0.2,0.4-0.6,0.4-1.1c0-0.5-0.1-0.9-0.4-1.2
		c-0.3-0.2-0.7-0.4-1.4-0.4h-7.5v3H48C48.7,13.4,49.1,13.3,49.4,13z M49.9,19.7c0.3-0.3,0.5-0.7,0.5-1.3c0-0.6-0.2-1-0.5-1.3
		c-0.3-0.3-0.8-0.4-1.5-0.4h-7.9v3.5h7.9C49.1,20.2,49.6,20,49.9,19.7z"/>
	<path class="st0" d="M79.2,8.3c2.1,1.5,3.1,3.8,3.1,7c0,3.1-1,5.4-3.1,7c-2.1,1.5-5.1,2.3-9,2.3c-3.9,0-6.9-0.8-8.9-2.3
		c-2.1-1.5-3.1-3.8-3.1-7c0-3.1,1-5.4,3.1-7c2.1-1.5,5-2.3,8.9-2.3C74.2,6,77.2,6.7,79.2,8.3z M74.8,18.8c1-0.8,1.5-2,1.5-3.6
		c0-1.6-0.5-2.8-1.5-3.6c-1-0.8-2.5-1.3-4.5-1.3c-2,0-3.5,0.4-4.5,1.3s-1.5,2-1.5,3.6c0,1.6,0.5,2.8,1.5,3.6s2.5,1.3,4.5,1.3
		C72.3,20.1,73.8,19.7,74.8,18.8z"/>
	<path class="st0" d="M105.9,6.5v9.9c0,2-0.4,3.6-1.3,4.8s-2.1,2-3.6,2.5s-3.5,0.7-5.8,0.7c-2.3,0-4.2-0.2-5.8-0.7s-2.8-1.3-3.6-2.5
		s-1.3-2.8-1.3-4.8V6.5h5.5v9.8c0,1.3,0.4,2.3,1.3,2.9c0.9,0.6,2.1,0.8,3.8,0.8s2.9-0.3,3.8-0.8c0.9-0.6,1.3-1.5,1.3-2.9V6.5H105.9z
		"/>
	<path class="st0" d="M121.6,10.2c-0.7-0.3-1.8-0.5-3.2-0.5c-1.4,0-2.4,0.1-3,0.4c-0.6,0.3-0.9,0.7-0.9,1.2c0,0.4,0.2,0.7,0.5,0.9
		c0.4,0.2,0.9,0.3,1.8,0.4l6.9,0.6c2,0.2,3.6,0.7,4.6,1.5c1,0.8,1.5,2.1,1.5,3.8c0,1.6-0.4,2.8-1.3,3.6c-0.8,0.9-2.1,1.5-3.7,1.8
		c-1.6,0.3-3.7,0.5-6.2,0.5c-2.4,0-4.4-0.2-6-0.5c-1.5-0.4-2.7-1-3.6-1.9c-0.9-0.9-1.3-2.2-1.4-3.9h6.4c0.2,1,0.6,1.7,1.4,2
		s1.9,0.5,3.4,0.5c1.5,0,2.6-0.1,3.3-0.4s1-0.7,1-1.3c0-0.5-0.2-0.9-0.6-1.1s-0.9-0.4-1.7-0.5l-6.7-0.7c-2.1-0.2-3.6-0.7-4.7-1.5
		c-1-0.8-1.5-2-1.5-3.7c0-2.1,0.9-3.5,2.6-4.3c1.8-0.8,4.4-1.3,7.8-1.3s6,0.4,7.8,1.3c1.8,0.9,2.7,2.4,2.8,4.5h-6.4
		C122.7,11,122.3,10.5,121.6,10.2z"/>
	<path class="st0" d="M153.5,6.5v17.4h-5.5v-6.7h-10.3v6.7h-5.5V6.5h5.5v6.4h10.3V6.5H153.5z"/>
	<path class="st0" d="M161.8,13.2h12.7v3.7h-12.7v3.1h13.5v4h-19V6.5h18.8v4h-13.2V13.2z"/>
	<path class="st0" d="M177.8,23.9V6.5h5.5v13h13.3v4.4H177.8z"/>
	<path class="st0" d="M198.9,23.9V6.5h5.5v13h13.3v4.4H198.9z"/>
</g>
<g>
	<path class="st1" d="M26.8,0H3.1C1.4,0,0,1.4,0,3.1v23.7c0,1.7,1.4,3.1,3.1,3.1h23.7c1.7,0,3.1-1.4,3.1-3.1V3.1
		C29.9,1.4,28.5,0,26.8,0z"/>
</g>
</svg>
